<svg width="100" height="100" viewBox="0 0 100 100" fill="none" xmlns="http://www.w3.org/2000/svg">
<path d="M77.0127 69.8625C71.3175 71.23 65.3722 71.1637 59.7089 69.6697C54.0457 68.1756 48.8414 65.3003 44.562 61.3013C40.2827 57.3023 37.0619 52.3044 35.1881 46.7552C33.3144 41.206 32.8461 35.2787 33.8252 29.5042C33.6785 29.6504 33.5211 29.7855 33.3543 29.9083C32.1877 30.7958 30.7293 31.125 27.8127 31.7833L25.1668 32.3833C14.9168 34.7042 9.79183 35.8625 8.571 39.7833C7.35433 43.7 10.846 47.7875 17.8335 55.9583L19.6418 58.0708C21.6252 60.3917 22.621 61.5541 23.0668 62.9875C23.5127 64.425 23.3627 65.975 23.0627 69.0708L22.7877 71.8917C21.7335 82.7958 21.2043 88.2458 24.396 90.6667C27.5877 93.0875 32.3877 90.8833 41.9793 86.4625L44.4668 85.3208C47.1918 84.0625 48.5543 83.4375 50.0002 83.4375C51.446 83.4375 52.8085 84.0625 55.5377 85.3208L58.0168 86.4625C67.6127 90.8791 72.4127 93.0875 75.6002 90.6708C78.796 88.2458 78.2668 82.7958 77.2127 71.8917L77.0127 69.8625Z" fill="#362E26"/>
<path opacity="0.5" d="M38.1377 22.5334L36.771 24.9834C35.271 27.675 34.521 29.0209 33.3544 29.9084C33.521 29.7834 33.678 29.6487 33.8252 29.5042C32.8459 35.2792 33.3141 41.207 35.1881 46.7566C37.0621 52.3063 40.2833 57.3044 44.5631 61.3036C48.843 65.3027 54.0479 68.1778 59.7118 69.6716C65.3756 71.1653 71.3215 71.2309 77.0169 69.8625L76.9335 69.0709C76.6377 65.975 76.4877 64.425 76.9335 62.9875C77.3794 61.5542 78.371 60.3917 80.3585 58.0709L82.1669 55.9584C89.1544 47.7917 92.646 43.7042 91.4252 39.7834C90.2085 35.8625 85.0835 34.7 74.8335 32.3834L72.1835 31.7834C69.271 31.125 67.8127 30.7959 66.6419 29.9084C65.4752 29.0209 64.7252 27.675 63.2252 24.9834L61.8627 22.5334C56.5835 13.0667 53.946 8.33337 50.0002 8.33337C46.0544 8.33337 43.4169 13.0667 38.1377 22.5334Z" fill="#362E26"/>
</svg>
