<svg width="100" height="100" viewBox="0 0 100 100" fill="none" xmlns="http://www.w3.org/2000/svg">
<path d="M25.1668 32.3833C14.9168 34.7041 9.79183 35.8625 8.571 39.7833C7.35433 43.7 10.846 47.7875 17.8335 55.9583L19.6418 58.0708C21.6252 60.3916 22.621 61.5541 23.0668 62.9875C23.5127 64.425 23.3627 65.975 23.0627 69.0708L22.7877 71.8916C21.7335 82.7958 21.2043 88.2458 24.396 90.6666C27.5877 93.0875 32.3877 90.8791 41.9793 86.4625L44.4668 85.3208C47.1918 84.0625 48.5543 83.4375 50.0002 83.4375C51.446 83.4375 52.8085 84.0625 55.5377 85.3208L58.0168 86.4625C67.6127 90.8791 72.4127 93.0875 75.6002 90.6708C78.796 88.2458 78.2668 82.7958 77.2127 71.8916M82.1668 55.9583C89.1543 47.7916 92.646 43.7041 91.4293 39.7833C90.2127 35.8625 85.0835 34.7 74.8335 32.3833L72.1835 31.7833C69.271 31.125 67.8168 30.7958 66.646 29.9083C65.4752 29.0208 64.7293 27.675 63.2293 24.9833L61.8627 22.5333C56.5835 13.0666 53.946 8.33331 50.0002 8.33331C46.0543 8.33331 43.4168 13.0666 38.1377 22.5333" stroke="black" stroke-width="1.5" stroke-linecap="round"/>
</svg>
